<svg
        fill="none"
        height="24"
        viewBox="0 0 24 24"
        width="24"
        xmlns="http://www.w3.org/2000/svg"
>
    <g id="homework">
            <path d="M12 9.99999V4.86392" stroke="#323854" stroke-width="1.5" stroke-linecap="round" stroke-linejoin="round"/>
            <path d="M7.99995 15.1729C6.79296 15.0648 5.58041 15.3074 4.50795 15.8716C4.19869 16.0502 3.81793 16.0513 3.50764 15.8746C3.19734 15.6978 3.0041 15.3697 2.99995 15.0126V5.79393C2.99444 5.15562 3.29669 4.55372 3.81195 4.17693C6.34333 2.37748 9.80381 2.66783 12 4.86393C14.1961 2.66783 17.6566 2.37748 20.188 4.17693C20.7032 4.55372 21.0055 5.15562 21 5.79393V9.99993" stroke="#323854" stroke-width="1.5" stroke-linecap="round" stroke-linejoin="round"/>
            <path d="M12 14.25V20.5C12 20.7761 12.2239 21 12.5 21H20.5C20.7761 21 21 20.7761 21 20.5V14.25" stroke="#323854" stroke-width="1.5" stroke-linecap="round" stroke-linejoin="round"/>
            <path d="M17.95 21V17.5C17.95 17.2239 17.7261 17 17.45 17H15.45C15.1738 17 14.95 17.2239 14.95 17.5V21" stroke="#323854" stroke-width="1.5" stroke-linecap="round" stroke-linejoin="round"/>
            <path d="M22 15L16.8 11.1C16.6222 10.9667 16.3778 10.9667 16.2 11.1L11 15" stroke="#323854" stroke-width="1.5" stroke-linecap="round" stroke-linejoin="round"/>
    </g>

    <g id="report">
            <path fill-rule="evenodd" clip-rule="evenodd" d="M18.0025 21.0037H5.99754C4.89251 21.0037 3.9967 20.1079 3.9967 19.0029V4.99708C3.9967 3.89205 4.89251 2.99625 5.99754 2.99625H18.0025C19.1076 2.99625 20.0034 3.89205 20.0034 4.99708V19.0029C20.0034 20.1079 19.1076 21.0037 18.0025 21.0037Z" stroke="#323854" stroke-width="1.5" stroke-linecap="round" stroke-linejoin="round"/>
            <path d="M7.99829 7.99832H16.0016" stroke="#323854" stroke-width="1.5" stroke-linecap="round" stroke-linejoin="round"/>
            <path d="M7.99829 16.0017H9.99912" stroke="#323854" stroke-width="1.5" stroke-linecap="round" stroke-linejoin="round"/>
            <path d="M16.6129 15.5295L14.6671 17.4753L13.5006 16.3078" stroke="#323854" stroke-width="1.5" stroke-linecap="round" stroke-linejoin="round"/>
            <path d="M7.99829 12H16.0016" stroke="#323854" stroke-width="1.5" stroke-linecap="round" stroke-linejoin="round"/>
    </g>

    <g id="user">
            <path fill-rule="evenodd" clip-rule="evenodd" d="M4 12.3893C5.046 11.3726 6.46133 10.7473 8.01533 10.7473C9.554 10.7473 10.954 11.36 12 12.358C10.954 13.3746 9.53867 14 7.98467 14C6.446 14 5.046 13.3873 4 12.3893Z" stroke="#79747F" stroke-linecap="round" stroke-linejoin="round"/>
            <path d="M2.65 10.6833C2.24333 9.874 2 8.968 2 8C2 4.684 4.684 2 8 2C11.316 2 14 4.684 14 8C14 8.96667 13.758 9.87333 13.3487 10.682" stroke="#79747F" stroke-linecap="round" stroke-linejoin="round"/>
            <path d="M9.41421 5.25247C10.1953 6.03352 10.1953 7.29985 9.41421 8.0809C8.63316 8.86195 7.36683 8.86195 6.58579 8.0809C5.80474 7.29985 5.80474 6.03352 6.58579 5.25247C7.36683 4.47143 8.63316 4.47143 9.41421 5.25247" stroke="#79747F" stroke-linecap="round" stroke-linejoin="round"/>
    </g>


</svg>